<svg width="255" height="254" viewBox="0 0 255 254" version="1.1" xmlns="http://www.w3.org/2000/svg" xmlns:xlink="http://www.w3.org/1999/xlink">
<title>logo</title>
<desc>Created using Figma</desc>
<g id="Canvas" transform="translate(110 995)">
<g id="logo">
<g id="Vector">
<use xlink:href="#path0_fill" transform="translate(-152 -1038)" fill="#FFFFFF"/>
</g>
<g id="Vector">
<use xlink:href="#path1_fill" transform="translate(-43.8965 -929.897)" fill="#FFC700"/>
</g>
<g id="Group">
<g id="Group">
<g id="Vector">
<use xlink:href="#path2_fill" transform="translate(-60.6057 -942.574)" fill="#010101"/>
</g>
</g>
<g id="Group">
<g id="Vector">
<use xlink:href="#path3_fill" transform="translate(-60.6057 -851.214)" fill="#010101"/>
</g>
</g>
</g>
<g id="Group">
<g id="Group">
<g id="Vector">
<use xlink:href="#path4_fill" transform="translate(2.15475 -906.26)" fill="#010101"/>
</g>
</g>
<g id="Group">
<g id="Vector">
<use xlink:href="#path5_fill" transform="translate(-35.5437 -906.261)" fill="#010101"/>
</g>
</g>
</g>
</g>
</g>
<defs>
<path id="path0_fill" d="M 148.5 297C 230.514 297 297 230.514 297 148.5C 297 66.4857 230.514 0 148.5 0C 66.4857 0 0 66.4857 0 148.5C 0 230.514 66.4857 297 148.5 297Z"/>
<path id="path1_fill" d="M 40.3965 80.793C 62.7069 80.793 80.793 62.7069 80.793 40.3965C 80.793 18.0861 62.7069 5.46753e-06 40.3965 5.46753e-06C 18.0861 5.46753e-06 -2.11245e-06 18.0861 -2.11245e-06 40.3965C -2.11245e-06 62.7069 18.0861 80.793 40.3965 80.793Z"/>
<path id="path2_fill" d="M 114.211 14.7888L 107.915 14.7888L 107.915 6.88239L 6.29656 6.88239L 6.29656 14.7888L 5.59179e-07 14.7888L 5.59179e-07 -4.72196e-06L 114.211 -4.72196e-06L 114.211 14.7888Z"/>
<path id="path3_fill" d="M 114.211 14.7889L 5.59179e-07 14.7889L 5.59179e-07 -2.8932e-14L 6.29656 -2.8932e-14L 6.29656 7.90645L 107.915 7.90645L 107.915 -2.8932e-14L 114.211 -2.8932e-14L 114.211 14.7889Z"/>
<path id="path4_fill" d="M 26.3879 17.7389L -3.72786e-06 33.5208L -3.72786e-06 30.049L 21.7791 16.7291L -3.72786e-06 3.40862L -3.72786e-06 3.10655e-06L 26.3879 15.845L 26.3879 17.7389Z"/>
<path id="path5_fill" d="M 3.35508e-06 15.845L 26.3879 -4.97048e-07L 26.3879 3.40862L 4.60828 16.7291L 26.3879 30.049L 26.3879 33.5207L 3.35508e-06 17.7389L 3.35508e-06 15.845Z"/>
</defs>
</svg>
